<svg width="1440" height="439" viewBox="0 0 1440 439" fill="none" xmlns="http://www.w3.org/2000/svg">
<rect x="-16" y="-10" width="1472" height="448" fill="#ECE5DD"/>
<rect x="-16" y="-10" width="1472" height="448" stroke="#383838" stroke-width="2"/>
<g clip-path="url(#clip0_15720_219)">
<g opacity="0.6">
<path d="M1492 46.2307L-52.9998 46.2308" stroke="#D5CBC0" stroke-width="2"/>
<path d="M1492 103.462L-52.9998 103.462" stroke="#D5CBC0" stroke-width="2"/>
<path d="M1492 160.692L-52.9999 160.692" stroke="#D5CBC0" stroke-width="2"/>
<path d="M1492 217.923L-52.9999 217.923" stroke="#D5CBC0" stroke-width="2"/>
<path d="M1492 275.154L-52.9999 275.154" stroke="#D5CBC0" stroke-width="2"/>
<path d="M1492 332.385L-52.9999 332.385" stroke="#D5CBC0" stroke-width="2"/>
<path d="M1492 389.615L-52.9999 389.615" stroke="#D5CBC0" stroke-width="2"/>
<path d="M21.1923 1L21.1925 662" stroke="#D5CBC0" stroke-width="2"/>
<path d="M79.3846 1L79.3849 662" stroke="#D5CBC0" stroke-width="2"/>
<path d="M137.577 1L137.577 662" stroke="#D5CBC0" stroke-width="2"/>
<path d="M195.769 1L195.769 662" stroke="#D5CBC0" stroke-width="2"/>
<path d="M253.961 1L253.962 662" stroke="#D5CBC0" stroke-width="2"/>
<path d="M312.154 1L312.154 662" stroke="#D5CBC0" stroke-width="2"/>
<path d="M370.346 1L370.346 662" stroke="#D5CBC0" stroke-width="2"/>
<path d="M428.538 1L428.539 662" stroke="#D5CBC0" stroke-width="2"/>
<path d="M486.731 1L486.731 662" stroke="#D5CBC0" stroke-width="2"/>
<path d="M544.923 1L544.923 662" stroke="#D5CBC0" stroke-width="2"/>
<path d="M603.115 1L603.116 662" stroke="#D5CBC0" stroke-width="2"/>
<path d="M661.308 1L661.308 662" stroke="#D5CBC0" stroke-width="2"/>
<path d="M719.5 1L719.5 662" stroke="#D5CBC0" stroke-width="2"/>
<path d="M777.692 1L777.692 662" stroke="#D5CBC0" stroke-width="2"/>
<path d="M835.885 1L835.885 662" stroke="#D5CBC0" stroke-width="2"/>
<path d="M894.077 1L894.077 662" stroke="#D5CBC0" stroke-width="2"/>
<path d="M952.269 1L952.269 662" stroke="#D5CBC0" stroke-width="2"/>
<path d="M1010.46 1L1010.46 662" stroke="#D5CBC0" stroke-width="2"/>
<path d="M1068.65 1L1068.65 662" stroke="#D5CBC0" stroke-width="2"/>
<path d="M1126.85 1L1126.85 662" stroke="#D5CBC0" stroke-width="2"/>
<path d="M1185.04 1L1185.04 662" stroke="#D5CBC0" stroke-width="2"/>
<path d="M1243.23 1L1243.23 662" stroke="#D5CBC0" stroke-width="2"/>
<path d="M1301.42 1L1301.42 662" stroke="#D5CBC0" stroke-width="2"/>
<path d="M1359.62 1L1359.62 662" stroke="#D5CBC0" stroke-width="2"/>
<path d="M1417.81 1L1417.81 662" stroke="#D5CBC0" stroke-width="2"/>
</g>
</g>
<rect width="653" height="188" transform="translate(100 197)" fill="#ECE5DD"/>
<path d="M119.824 251H114.952V216.28H102.24V211.8H132.536V216.28H119.824V251ZM143.967 251H139.095V211.8H143.967V228.824H160.207V211.8H165.079V251H160.207V233.304H143.967V251ZM199.973 251H174.661V211.8H199.245V216.28H179.533V228.824H196.277V233.304H179.533V246.52H199.973V251ZM254.026 251H243.274V211.8H254.026C265.17 211.8 270.826 219.64 270.826 231.4C270.826 243.104 265.17 251 254.026 251ZM248.146 216.28V246.52H254.026C262.426 246.52 265.842 240.528 265.842 231.4C265.842 222.216 262.426 216.28 254.026 216.28H248.146ZM290.937 251.336C282.257 251.336 277.721 246.296 277.721 236.328V211.8H282.593V236.216C282.593 243.44 285.393 246.856 290.937 246.856C296.593 246.856 299.393 243.496 299.393 236.216V211.8H304.265V236.328C304.265 246.296 299.673 251.336 290.937 251.336ZM326.671 251.336C316.759 251.336 311.159 244.168 311.159 231.4C311.159 218.576 316.759 211.464 326.839 211.464C334.231 211.464 339.215 216.168 340.727 224.624H335.575C334.287 218.744 331.431 215.944 326.839 215.944C319.895 215.944 316.143 221.376 316.143 231.4C316.143 241.592 319.727 246.856 326.671 246.856C331.375 246.856 334.175 244.112 335.519 238.176H340.671C339.159 246.688 334.231 251.336 326.671 251.336ZM352.606 251H347.734V211.8H352.606V232.968L369.854 211.8H375.622L361.734 228.88L376.742 251H370.918L358.542 232.8L352.606 240.08V251ZM407.661 211.8V215.832H397.581V246.968H407.661V251H382.629V246.968H392.709V215.832H382.629V211.8H407.661ZM421.555 251H416.907V211.8H421.667L438.243 241.872V211.8H442.891V251H438.131L421.555 220.872V251ZM464.57 251.336C455.554 251.336 450.066 243.832 450.066 231.4C450.066 218.744 455.162 211.464 464.57 211.464C471.346 211.464 476.33 215.44 477.786 224.568H472.634C471.57 218.52 468.602 215.944 464.458 215.944C458.13 215.944 455.05 221.264 455.05 231.4C455.05 241.536 458.354 246.856 464.626 246.856C469.89 246.856 473.138 242.544 473.138 235.6V234.256H465.298V229.776H477.898V251H473.698L473.362 245.848C471.57 249.432 468.602 251.336 464.57 251.336ZM534.807 251.336C525.959 251.336 520.191 246.24 519.911 238.176H524.951C525.343 243.496 529.263 246.912 534.863 246.912C540.015 246.912 543.319 244.336 543.319 240.248C543.319 236.44 540.855 234.704 533.127 233.36C524.671 231.904 520.863 228.544 520.863 222.608C520.863 215.944 526.071 211.464 533.687 211.464C541.807 211.464 547.239 216.112 547.687 223.392H542.647C542.143 218.8 538.615 215.888 533.687 215.888C528.703 215.888 525.735 218.296 525.735 222.328C525.735 226.024 528.087 227.648 535.815 228.992C544.271 230.392 548.191 233.864 548.191 239.8C548.191 246.576 542.703 251.336 534.807 251.336ZM581.293 211.8V215.832H571.213V246.968H581.293V251H556.261V246.968H566.341V215.832H556.261V211.8H581.293ZM593.9 251H589.42V211.8H595.132L603.588 230.896L612.1 211.8H617.644V251H613.164V219.752L605.66 236.496H601.46L593.9 219.752V251ZM630.978 251H626.106V211.8H639.77C647.61 211.8 652.762 216.504 652.762 223.84C652.762 231.176 647.61 235.936 639.77 235.936H630.978V251ZM630.978 216.28V231.456H639.322C644.474 231.456 647.778 228.488 647.778 223.84C647.778 219.192 644.53 216.28 639.378 216.28H630.978ZM686.089 251H662.233V211.8H667.105V246.52H686.089V251ZM720.872 251H695.56V211.8H720.144V216.28H700.432V228.824H717.176V233.304H700.432V246.52H720.872V251ZM115.12 318H104.368V278.8H115.12C126.264 278.8 131.92 286.64 131.92 298.4C131.92 310.104 126.264 318 115.12 318ZM109.24 283.28V313.52H115.12C123.52 313.52 126.936 307.528 126.936 298.4C126.936 289.216 123.52 283.28 115.12 283.28H109.24ZM140.887 318H135.903L149.063 278.8H155.111L168.271 318H163.119L159.591 307.416H144.415L140.887 318ZM151.975 284.12L145.815 302.992H158.191L151.975 284.12ZM189.277 318H184.405V283.28H171.693V278.8H201.989V283.28H189.277V318ZM210.34 318H205.356L218.516 278.8H224.564L237.724 318H232.572L229.044 307.416H213.868L210.34 318ZM221.428 284.12L215.268 302.992H227.644L221.428 284.12ZM286.065 318H280.073L274.697 278.8H279.233L283.489 311.728L288.641 292.24H293.569L298.553 311.728L302.753 278.8H307.289L301.801 318H295.921L291.049 298.736L286.065 318ZM314.519 318H309.535L322.695 278.8H328.743L341.903 318H336.751L333.223 307.416H318.047L314.519 318ZM325.607 284.12L319.447 302.992H331.823L325.607 284.12ZM352.886 318H348.014V278.8H361.286C369.126 278.8 374.334 283.504 374.334 290.84C374.334 296.328 371.03 300.584 365.99 301.984L374.782 318H369.294L361.006 302.936H352.886V318ZM352.886 283.28V298.456H360.894C366.046 298.456 369.35 295.432 369.35 290.84C369.35 286.248 366.046 283.28 360.95 283.28H352.886ZM408.333 318H383.021V278.8H407.605V283.28H387.893V295.824H404.637V300.304H387.893V313.52H408.333V318ZM421.779 318H416.907V278.8H421.779V295.824H438.019V278.8H442.891V318H438.019V300.304H421.779V318ZM464.626 318.336C455.61 318.336 450.066 310.832 450.066 298.4C450.066 285.968 455.61 278.464 464.626 278.464C473.642 278.464 479.186 285.968 479.186 298.4C479.186 310.832 473.642 318.336 464.626 318.336ZM464.626 313.856C470.898 313.856 474.202 308.48 474.202 298.4C474.202 288.32 470.898 282.944 464.626 282.944C458.354 282.944 455.05 288.264 455.05 298.4C455.05 308.536 458.354 313.856 464.626 313.856ZM499.296 318.336C490.616 318.336 486.08 313.296 486.08 303.328V278.8H490.952V303.216C490.952 310.44 493.752 313.856 499.296 313.856C504.952 313.856 507.752 310.496 507.752 303.216V278.8H512.624V303.328C512.624 313.296 508.032 318.336 499.296 318.336ZM534.807 318.336C525.959 318.336 520.191 313.24 519.911 305.176H524.951C525.343 310.496 529.263 313.912 534.863 313.912C540.015 313.912 543.319 311.336 543.319 307.248C543.319 303.44 540.855 301.704 533.127 300.36C524.671 298.904 520.863 295.544 520.863 289.608C520.863 282.944 526.071 278.464 533.687 278.464C541.807 278.464 547.239 283.112 547.687 290.392H542.647C542.143 285.8 538.615 282.888 533.687 282.888C528.703 282.888 525.735 285.296 525.735 289.328C525.735 293.024 528.087 294.648 535.815 295.992C544.271 297.392 548.191 300.864 548.191 306.8C548.191 313.576 542.703 318.336 534.807 318.336ZM581.965 318H556.653V278.8H581.237V283.28H561.525V295.824H578.269V300.304H561.525V313.52H581.965V318Z" fill="#383838"/>
<path d="M107.848 377.144C103.6 377.144 101.2 374.072 101.2 368.6C101.2 363.104 103.6 360.056 107.92 360.056C111.088 360.056 113.224 362.072 113.872 365.696H111.664C111.112 363.176 109.888 361.976 107.92 361.976C104.944 361.976 103.336 364.304 103.336 368.6C103.336 372.968 104.872 375.224 107.848 375.224C109.864 375.224 111.064 374.048 111.64 371.504H113.848C113.2 375.152 111.088 377.144 107.848 377.144ZM127.939 377H117.715V360.2H119.803V375.08H127.939V377ZM137.206 377.144C133.342 377.144 130.966 373.928 130.966 368.6C130.966 363.272 133.342 360.056 137.206 360.056C141.07 360.056 143.446 363.272 143.446 368.6C143.446 373.928 141.07 377.144 137.206 377.144ZM137.206 375.224C139.894 375.224 141.31 372.92 141.31 368.6C141.31 364.28 139.894 361.976 137.206 361.976C134.518 361.976 133.102 364.256 133.102 368.6C133.102 372.944 134.518 375.224 137.206 375.224ZM152.064 377.144C148.344 377.144 146.4 374.984 146.4 370.712V360.2H148.488V370.664C148.488 373.76 149.688 375.224 152.064 375.224C154.488 375.224 155.688 373.784 155.688 370.664V360.2H157.776V370.712C157.776 374.984 155.808 377.144 152.064 377.144ZM166.011 377H161.403V360.2H166.011C170.787 360.2 173.211 363.56 173.211 368.6C173.211 373.616 170.787 377 166.011 377ZM163.491 362.12V375.08H166.011C169.611 375.08 171.075 372.512 171.075 368.6C171.075 364.664 169.611 362.12 166.011 362.12H163.491ZM197.049 377.144C193.257 377.144 190.785 374.96 190.665 371.504H192.825C192.993 373.784 194.673 375.248 197.073 375.248C199.281 375.248 200.697 374.144 200.697 372.392C200.697 370.76 199.641 370.016 196.329 369.44C192.705 368.816 191.073 367.376 191.073 364.832C191.073 361.976 193.305 360.056 196.569 360.056C200.049 360.056 202.377 362.048 202.569 365.168H200.409C200.193 363.2 198.681 361.952 196.569 361.952C194.433 361.952 193.161 362.984 193.161 364.712C193.161 366.296 194.169 366.992 197.481 367.568C201.105 368.168 202.785 369.656 202.785 372.2C202.785 375.104 200.433 377.144 197.049 377.144ZM217.356 375.176H218.172V377H217.116C216.084 377 215.412 376.808 214.86 376.184C213.948 376.808 212.868 377.144 211.62 377.144C207.756 377.144 205.38 373.928 205.38 368.6C205.38 363.272 207.756 360.056 211.62 360.056C215.484 360.056 217.86 363.272 217.86 368.6C217.86 371.24 217.26 373.376 216.204 374.84C216.516 375.128 216.852 375.176 217.356 375.176ZM207.516 368.6C207.516 372.944 208.932 375.224 211.62 375.224C212.508 375.224 213.252 374.984 213.852 374.48L212.988 372.872C212.652 372.248 212.412 371.936 211.524 371.936H210.108V370.112H211.62C213.06 370.112 213.804 370.568 214.428 371.72L215.028 372.848C215.484 371.792 215.724 370.352 215.724 368.6C215.724 364.28 214.308 361.976 211.62 361.976C208.932 361.976 207.516 364.256 207.516 368.6ZM232.119 377H221.895V360.2H223.983V375.08H232.119V377ZM251.468 377H249.332L254.972 360.2H257.564L263.204 377H260.996L259.484 372.464H252.98L251.468 377ZM256.22 362.48L253.58 370.568H258.884L256.22 362.48ZM267.575 377H265.583V360.2H267.623L274.727 373.088V360.2H276.719V377H274.679L267.575 364.088V377ZM281.234 377H279.098L284.738 360.2H287.33L292.97 377H290.762L289.25 372.464H282.746L281.234 377ZM285.986 362.48L283.346 370.568H288.65L285.986 362.48ZM306.533 377H296.309V360.2H298.397V375.08H306.533V377ZM316.855 377H314.767V370.784L308.815 360.2H311.215L315.823 368.48L320.479 360.2H322.783L316.855 370.784V377ZM331.738 377H329.65V362.12H324.202V360.2H337.186V362.12H331.738V377ZM350.917 360.2V361.928H346.597V375.272H350.917V377H340.189V375.272H344.509V361.928H340.189V360.2H350.917ZM360.856 377.144C356.608 377.144 354.208 374.072 354.208 368.6C354.208 363.104 356.608 360.056 360.928 360.056C364.096 360.056 366.232 362.072 366.88 365.696H364.672C364.12 363.176 362.896 361.976 360.928 361.976C357.952 361.976 356.344 364.304 356.344 368.6C356.344 372.968 357.88 375.224 360.856 375.224C362.872 375.224 364.072 374.048 364.648 371.504H366.856C366.208 375.152 364.096 377.144 360.856 377.144ZM375.643 377.144C371.851 377.144 369.379 374.96 369.259 371.504H371.419C371.587 373.784 373.267 375.248 375.667 375.248C377.875 375.248 379.291 374.144 379.291 372.392C379.291 370.76 378.235 370.016 374.923 369.44C371.299 368.816 369.667 367.376 369.667 364.832C369.667 361.976 371.899 360.056 375.163 360.056C378.643 360.056 380.971 362.048 381.163 365.168H379.003C378.787 363.2 377.275 361.952 375.163 361.952C373.027 361.952 371.755 362.984 371.755 364.712C371.755 366.296 372.763 366.992 376.075 367.568C379.699 368.168 381.379 369.656 381.379 372.2C381.379 375.104 379.027 377.144 375.643 377.144ZM402.984 377H400.416L398.112 360.2H400.056L401.88 374.312L404.088 365.96H406.2L408.336 374.312L410.136 360.2H412.08L409.728 377H407.208L405.12 368.744L402.984 377ZM425.331 360.2V361.928H421.011V375.272H425.331V377H414.603V375.272H418.923V361.928H414.603V360.2H425.331ZM435.918 377H433.83V362.12H428.382V360.2H441.366V362.12H435.918V377ZM446.265 377H444.177V360.2H446.265V367.496H453.225V360.2H455.313V377H453.225V369.416H446.265V377ZM464.628 377.144C460.764 377.144 458.388 373.928 458.388 368.6C458.388 363.272 460.764 360.056 464.628 360.056C468.492 360.056 470.868 363.272 470.868 368.6C470.868 373.928 468.492 377.144 464.628 377.144ZM464.628 375.224C467.316 375.224 468.732 372.92 468.732 368.6C468.732 364.28 467.316 361.976 464.628 361.976C461.94 361.976 460.524 364.256 460.524 368.6C460.524 372.944 461.94 375.224 464.628 375.224ZM479.486 377.144C475.766 377.144 473.822 374.984 473.822 370.712V360.2H475.91V370.664C475.91 373.76 477.11 375.224 479.486 375.224C481.91 375.224 483.11 373.784 483.11 370.664V360.2H485.198V370.712C485.198 374.984 483.23 377.144 479.486 377.144ZM495.449 377H493.361V362.12H487.913V360.2H500.897V362.12H495.449V377ZM525.215 377H523.127V362.12H517.679V360.2H530.663V362.12H525.215V377ZM535.562 377H533.474V360.2H535.562V367.496H542.522V360.2H544.61V377H542.522V369.416H535.562V377ZM559.564 377H548.716V360.2H559.252V362.12H550.804V367.496H557.98V369.416H550.804V375.08H559.564V377ZM583.69 377.144C579.826 377.144 577.45 373.928 577.45 368.6C577.45 363.272 579.826 360.056 583.69 360.056C587.554 360.056 589.93 363.272 589.93 368.6C589.93 373.928 587.554 377.144 583.69 377.144ZM583.69 375.224C586.378 375.224 587.794 372.92 587.794 368.6C587.794 364.28 586.378 361.976 583.69 361.976C581.002 361.976 579.586 364.256 579.586 368.6C579.586 372.944 581.002 375.224 583.69 375.224ZM599.773 377H597.373L591.589 360.2H593.797L598.597 374.192L603.397 360.2H605.557L599.773 377ZM619.096 377H608.248V360.2H618.784V362.12H610.336V367.496H617.512V369.416H610.336V375.08H619.096V377ZM625.098 377H623.01V360.2H628.698C632.058 360.2 634.29 362.216 634.29 365.36C634.29 367.712 632.874 369.536 630.714 370.136L634.482 377H632.13L628.578 370.544H625.098V377ZM625.098 362.12V368.624H628.53C630.738 368.624 632.154 367.328 632.154 365.36C632.154 363.392 630.738 362.12 628.554 362.12H625.098ZM639.741 377H637.653V360.2H639.741V367.496H646.701V360.2H648.789V377H646.701V369.416H639.741V377ZM663.744 377H652.896V360.2H663.432V362.12H654.984V367.496H662.16V369.416H654.984V375.08H663.744V377ZM668.187 377H666.051L671.691 360.2H674.283L679.923 377H677.715L676.203 372.464H669.699L668.187 377ZM672.939 362.48L670.299 370.568H675.603L672.939 362.48ZM686.91 377H682.302V360.2H686.91C691.686 360.2 694.11 363.56 694.11 368.6C694.11 373.616 691.686 377 686.91 377ZM684.39 362.12V375.08H686.91C690.51 375.08 691.974 372.512 691.974 368.6C691.974 364.664 690.51 362.12 686.91 362.12H684.39Z" fill="#383838"/>
<defs>
<clipPath id="clip0_15720_219">
<rect width="1545" height="448" fill="white" transform="translate(-53 -11)"/>
</clipPath>
</defs>
</svg>
