<svg width="123" height="121" viewBox="0 0 123 121" fill="none" xmlns="http://www.w3.org/2000/svg">
<path d="M1.00024 28.5497H121.269V93.3435C121.269 93.3435 104.912 108.773 61.1346 108.773C17.3568 108.773 1.00024 93.3435 1.00024 93.3435V28.5497Z" fill="#F8F8F7" stroke="#383838" stroke-width="2" stroke-miterlimit="10"/>
<path d="M121.272 45.93C118.59 83.1236 108.373 100.891 65.9116 108.397V108.746C105.962 107.522 121.272 93.3971 121.272 93.3971V45.93Z" fill="#383838"/>
<path d="M121 25.5C121 36.2696 94.1371 45 61 45C27.8629 45 1 36.2696 1 25.5C1 14.7304 27.8629 6 61 6C94.1371 6 121 14.7304 121 25.5Z" fill="#383838" stroke="#383838" stroke-width="2" stroke-miterlimit="10"/>
<path d="M103 26C103 33.1797 84.196 39 61 39C37.804 39 19 33.1797 19 26C19 18.8203 37.804 13 61 13C84.196 13 103 18.8203 103 26Z" fill="#383838" stroke="#F8F8F7" stroke-width="2" stroke-miterlimit="10"/>
<path d="M89 26C89 29.866 76.6878 33 61.5 33C46.3122 33 34 29.866 34 26C34 22.134 46.3122 19 61.5 19C76.6878 19 89 22.134 89 26Z" fill="#383838" stroke="#F8F8F7" stroke-width="2" stroke-miterlimit="10"/>
<path d="M21 63.5C21 68.1944 19.2032 72 16.9868 72C14.9615 72 13.2865 68.8222 13.0128 64.6923C13.0043 64.5641 13.0739 64.4432 13.1883 64.3849L17.5523 62.1615C17.7911 62.0398 17.7879 61.6974 17.5468 61.5802L13.6618 59.6917C13.5241 59.6247 13.4514 59.4706 13.4909 59.3227C14.1798 56.742 15.4873 55 16.9868 55C19.2032 55 21 58.8056 21 63.5Z" fill="#383838"/>
<path d="M38 67.5C38 72.1944 36.2032 76 33.9868 76C31.9615 76 30.2865 72.8222 30.0128 68.6923C30.0043 68.5641 30.0739 68.4432 30.1883 68.3849L34.5523 66.1615C34.7911 66.0398 34.7879 65.6974 34.5468 65.5802L30.6618 63.6917C30.5241 63.6247 30.4514 63.4706 30.4909 63.3227C31.1798 60.742 32.4873 59 33.9868 59C36.2032 59 38 62.8056 38 67.5Z" fill="#383838"/>
</svg>
