<svg width="273" height="140" viewBox="0 0 273 140" fill="none" xmlns="http://www.w3.org/2000/svg">
<path d="M273 114L226 114" stroke="#383838" stroke-width="2"/>
<path d="M248 37L226 37" stroke="#383838" stroke-width="2"/>
<path d="M25.7297 91.3938C28.0334 91.3938 30.2324 91.7101 32.2743 92.29C36.7246 84.7516 44.8399 79.7437 54.1593 79.7437C60.9133 79.7437 67.0914 82.4322 71.6464 86.7548C74.4213 85.3315 77.6151 84.5408 80.9659 84.5408C88.0864 84.5408 94.4215 88.1782 98.1388 93.7133C99.9713 93.397 101.909 93.1862 103.898 93.1862C114.998 93.1862 119.814 98.6159 119.814 105.311C119.814 112.006 114.998 117.435 103.898 117.435C101.909 117.435 99.9713 117.277 98.1388 116.908C94.4215 122.443 88.1387 126.081 80.9659 126.081C77.6151 126.081 74.4737 125.29 71.6464 123.867C67.0914 128.189 60.9133 130.878 54.1593 130.878C44.8399 130.878 36.7246 125.817 32.2743 118.332C30.2324 118.911 28.0334 119.228 25.7297 119.228C15.3631 119.228 6.98608 113.007 6.98608 105.311C6.98608 97.6143 15.4155 91.3938 25.7297 91.3938Z" fill="white" stroke="#383838" stroke-width="2" stroke-miterlimit="10"/>
<path d="M112.393 119.229C111.303 119.229 110.262 119.378 109.296 119.652C107.19 116.096 103.35 113.734 98.9395 113.734C95.7435 113.734 92.8199 115.002 90.6644 117.041C89.3513 116.37 87.84 115.997 86.2543 115.997C82.8848 115.997 79.8869 117.712 78.1278 120.323C77.2607 120.174 76.344 120.075 75.4025 120.075C70.15 120.075 67.8706 122.636 67.8706 125.794C67.8706 128.952 70.15 131.513 75.4025 131.513C76.344 131.513 77.2607 131.438 78.1278 131.264C79.8869 133.875 82.86 135.591 86.2543 135.591C87.84 135.591 89.3265 135.218 90.6644 134.547C92.8199 136.586 95.7435 137.854 98.9395 137.854C103.35 137.854 107.19 135.467 109.296 131.936C110.262 132.209 111.303 132.358 112.393 132.358C117.298 132.358 121.263 129.424 121.263 125.794C121.263 122.163 117.274 119.229 112.393 119.229Z" fill="white" stroke="#383838" stroke-width="2" stroke-miterlimit="10"/>
<path d="M42.0079 64.0733C41.3702 64.0733 40.7616 64.1629 40.1964 64.327C38.9646 62.1935 36.7184 60.7761 34.139 60.7761C32.2695 60.7761 30.5595 61.537 29.2988 62.7604C28.5307 62.3576 27.6467 62.1338 26.7193 62.1338C24.7484 62.1338 22.995 63.1633 21.9661 64.7298C21.4588 64.6403 20.9227 64.5806 20.372 64.5806C17.2998 64.5806 15.9666 66.1173 15.9666 68.0121C15.9666 69.9069 17.2998 71.4436 20.372 71.4436C20.9227 71.4436 21.4588 71.3988 21.9661 71.2944C22.995 72.861 24.7339 73.8904 26.7193 73.8904C27.6467 73.8904 28.5162 73.6666 29.2988 73.2638C30.5595 74.4872 32.2695 75.2481 34.139 75.2481C36.7184 75.2481 38.9646 73.8158 40.1964 71.6972C40.7616 71.8614 41.3702 71.9509 42.0079 71.9509C44.8772 71.9509 47.1958 70.1904 47.1958 68.0121C47.1958 65.8339 44.8627 64.0733 42.0079 64.0733Z" fill="white" stroke="#383838" stroke-width="2" stroke-miterlimit="10"/>
<mask id="mask0_14108_52974" style="mask-type:alpha" maskUnits="userSpaceOnUse" x="148" y="92" width="41" height="45">
<rect x="148.058" y="92.1788" width="40.6952" height="43.908" fill="#D9D9D9"/>
</mask>
<g mask="url(#mask0_14108_52974)">
<path d="M150.961 106.608C153.215 101.535 161.294 102.615 165.052 103.789C162.938 100.971 156.597 98.153 155.188 97.4485C153.779 96.7439 132.642 93.9257 134.756 110.835C136.447 124.363 149.552 124.926 155.893 123.517C147.438 119.572 146.264 112.009 146.733 108.721C148.988 110.976 153.309 111.54 155.188 111.54C154.484 111.54 149.552 109.426 150.961 106.608Z" fill="#383838"/>
<path d="M138.047 114.005L138.065 114.054L138.089 114.101C138.835 115.592 140.352 118.072 143.225 119.795C146.127 121.537 150.281 122.428 156.135 120.965C159.618 120.094 161.711 118.214 162.444 115.756C163.159 113.361 162.5 110.678 161.075 108.313C158.234 103.598 151.986 99.5521 145.16 100.69C142.697 101.1 140.356 102.906 138.918 105.301C137.466 107.721 136.867 110.857 138.047 114.005ZM180.257 112.244C180.257 123.158 168.951 132.381 154.484 132.381C140.016 132.381 128.71 123.158 128.71 112.244C128.71 101.331 140.016 92.1078 154.484 92.1078C168.951 92.1078 180.257 101.331 180.257 112.244Z" fill="#FF9538" stroke="#383838" stroke-width="2"/>
</g>
<path d="M88.1741 74.6187C86.4572 90.8251 110.087 105.766 140.952 107.991C151.975 108.786 158.585 107.829 170.344 103.375C185.772 97.5303 194.863 85.4322 183.987 69.9033C187.055 53.6168 178.078 49.6714 147.212 47.4468C116.347 45.2221 89.8911 58.4123 88.1741 74.6187Z" fill="#FFDE00" stroke="#383838" stroke-width="2" stroke-miterlimit="10"/>
<path d="M173.818 101.69C173.818 101.69 188.218 95.3925 197.321 81.4705C203.211 73.4385 206.554 58.4456 206.554 50.0149C208.115 8.69729 177.562 -5.58821 164.754 16.7414C160.505 24.1534 160.721 53.9549 144.003 60.9715L166.055 74.2537L171.619 99.6762L173.818 101.69Z" fill="#FFDE00"/>
<path d="M173.76 101.818C173.839 101.752 173.813 101.788 173.839 101.773C198.773 87.3475 207.589 69.623 206.229 41.449C203.555 5.70077 175.489 -6.30686 163.321 20.8287C158.226 32.1913 160.346 49.0794 149.087 56.9478" stroke="#383838" stroke-width="2" stroke-miterlimit="10"/>
<path d="M197.41 53.0191C199.266 52.2782 201.412 56.5073 210.029 58.2974C219.069 60.1754 226.827 68.7789 217.689 68.3198C196.135 64.8876 190.774 56.0914 197.41 53.0191Z" fill="#383838" stroke="#383838" stroke-width="2"/>
<path d="M211.167 48.234C202.077 47.512 196.131 42.0179 196.131 42.0179C198.041 46.9822 188.056 49.6577 187.716 56.8488C187.448 62.5203 202.334 67.4492 214.091 68.4657C216.279 68.6549 218.492 68.4173 220.672 67.9604C221.346 67.8191 221.394 66.844 220.733 66.698L220.506 66.6478C209.098 64.1293 195.613 61.1522 197.553 54.593C200.055 58.0539 208.345 60.9313 214.971 60.4416C222.633 59.8755 228.192 58.9257 233.426 56.5465C239.636 53.7242 243.542 46.6732 237.919 47.283C229.51 48.195 219.122 48.8658 211.167 48.234Z" fill="#FF7169" stroke="#383838" stroke-width="2"/>
<path d="M191.495 34.5241C192.432 39.0274 191.223 43.0962 188.799 43.6027C186.647 44.0509 184.269 41.5581 183.101 37.8615C182.999 37.5263 183.123 37.1591 183.415 36.9481L186.455 34.7498C187.057 34.319 186.849 33.3783 186.122 33.2303L183.151 32.6368C182.738 32.5574 182.439 32.1737 182.491 31.7512C182.814 29.3604 183.864 27.6042 185.401 27.2892C187.824 26.7827 190.549 30.0295 191.486 34.5329L191.495 34.5241Z" fill="#383838"/>
<path d="M207.41 34.094C208.346 38.5974 207.137 42.6662 204.714 43.1726C202.561 43.6209 200.183 41.128 199.016 37.4314C198.914 37.0962 199.037 36.729 199.33 36.518L202.369 34.3197C202.972 33.889 202.764 32.9483 202.036 32.8002L199.065 32.2068C198.652 32.1274 198.353 31.7437 198.406 31.3211C198.728 28.9304 199.778 27.1742 201.315 26.8592C203.739 26.3527 206.464 29.5995 207.4 34.1029L207.41 34.094Z" fill="#383838"/>
<path d="M137.514 48.9762C110.785 47.3447 109.421 58.6214 55.8716 52.3306C55.2826 52.3002 54.7908 52.7931 54.8821 53.4427C55.5272 58.0302 59.7188 72.4562 80.4144 74.3371C83.3464 74.6035 90.4038 72.1682 90.2309 69.8703C90.058 67.5724 83.7802 71.2782 80.8843 73.8012C76.6556 85.0064 108.954 83.5795 116.545 76.6604C121.319 72.3148 119.043 70.6021 114.906 74.3897C112.152 76.9395 110.527 79.3844 114.73 83.6125C122.445 90.1131 142.055 86.0254 150.395 67.9906" fill="#FFDE00"/>
<path d="M144.692 47.202C117.963 45.5705 109.421 58.8012 55.8716 52.5104C55.2826 52.4801 54.7909 52.973 54.8822 53.6225C55.5273 58.21 59.7189 72.6361 80.4145 74.5169C83.3465 74.7834 90.4038 72.348 90.2309 70.0501C90.0581 67.7522 83.7803 71.4581 80.8844 73.981C76.6557 85.1862 108.954 83.7594 116.545 76.8402C121.32 72.4946 119.044 70.7819 114.906 74.5695C112.152 77.1193 110.527 79.5642 114.73 83.7924C122.445 90.2929 142.055 86.2053 150.395 68.1704" stroke="#383838" stroke-width="2" stroke-miterlimit="10"/>
<path d="M152.342 19.3574H114.324" stroke="#383838" stroke-width="2"/>
<path d="M107.363 91.1093L73.0933 91.1093" stroke="#383838" stroke-width="2"/>
<path d="M63.4551 91.1093L50.604 91.1093" stroke="#383838" stroke-width="2"/>
<path d="M126.64 26.8535L81.6606 26.8535" stroke="#383838" stroke-width="2"/>
<path d="M40 43L0 43" stroke="#383838" stroke-width="2"/>
<path d="M165.726 43.7418C164.099 46.4318 160.683 47.3442 158.097 45.7797C155.51 44.2152 154.732 40.7662 156.359 38.0762C157.986 35.3862 165.887 32.8995 165.887 32.8995C165.887 32.8995 167.353 41.0518 165.726 43.7418Z" fill="#6FC2FF"/>
<path d="M159.763 42.2958C160.6 42.7343 161.871 42.8222 162.828 41.2401M165.726 43.7418C164.099 46.4318 160.683 47.3442 158.097 45.7797C155.51 44.2152 154.732 40.7662 156.359 38.0762C157.986 35.3862 165.887 32.8995 165.887 32.8995C165.887 32.8995 167.353 41.0518 165.726 43.7418Z" stroke="#383838" stroke-width="2"/>
<path d="M149.15 44.4098C147.987 45.7002 146.039 45.8404 144.798 44.7229C143.557 43.6054 143.494 41.6534 144.656 40.3629C145.818 39.0724 150.363 38.5439 150.363 38.5439C150.363 38.5439 150.312 43.1193 149.15 44.4098Z" fill="#6FC2FF" stroke="#383838" stroke-width="2"/>
<path d="M164.657 12.932L200.533 16.1448C200.533 16.1448 203.211 19.893 204.549 23.0924C205.888 26.2917 206.424 30.0669 206.424 30.0669L158.767 26.8173C158.767 26.8173 159.303 23.6234 160.909 19.3582C162.516 15.093 164.657 12.932 164.657 12.932Z" fill="white"/>
<path d="M200.533 16.1448L164.657 12.932C164.657 12.932 163.232 14.3702 161.835 17.2158L203.231 20.4286C201.945 18.1211 200.533 16.1448 200.533 16.1448Z" fill="#6FC2FF"/>
<path d="M158.767 26.8173L206.424 30.0669C206.424 30.0669 206.143 28.089 205.48 25.7832L160.157 21.4995C159.131 24.6489 158.767 26.8173 158.767 26.8173Z" fill="#6FC2FF"/>
<path d="M165.064 13.979C165.066 13.977 165.067 13.9749 165.069 13.9729L199.98 17.0992C200.029 17.1708 200.084 17.2517 200.145 17.3413C200.411 17.7348 200.781 18.293 201.192 18.9493C202.019 20.271 202.989 21.9538 203.627 23.4783C204.264 25.002 204.718 26.6825 205.013 27.9981C205.094 28.3599 205.162 28.6918 205.219 28.9825L159.975 25.8973C160.037 25.621 160.114 25.2969 160.206 24.931C160.533 23.629 161.058 21.8014 161.845 19.7107C162.616 17.6631 163.513 16.1276 164.21 15.1113C164.559 14.6032 164.857 14.2255 165.064 13.979Z" stroke="#383838" stroke-width="2"/>
<path d="M176.973 25.7825L193.037 30.0662" stroke="#383838" stroke-width="4"/>
<path d="M208.03 23.6405L197.404 30.1793" stroke="#383838" stroke-width="4"/>
<path d="M130.191 109.428C132.716 103.746 141.764 104.956 145.973 106.272C143.606 103.115 136.504 99.9587 134.925 99.1696C133.347 98.3805 109.674 95.2241 112.041 114.163C113.935 129.313 128.613 129.945 135.715 128.366C126.245 123.947 124.93 115.478 125.456 111.795C127.981 114.32 132.821 114.952 134.925 114.952C134.136 114.952 128.613 112.584 130.191 109.428Z" fill="#383838"/>
<path d="M115.839 117.67L115.858 117.719L115.881 117.766C116.712 119.427 118.398 122.181 121.588 124.095C124.807 126.026 129.426 127.024 135.957 125.391C139.828 124.423 142.131 122.341 142.937 119.639C143.724 117 143.001 114.031 141.416 111.399C138.254 106.151 131.3 101.653 123.713 102.918C120.996 103.371 118.402 105.366 116.806 108.026C115.195 110.71 114.532 114.185 115.839 117.67ZM163.122 115.741C163.122 128.055 150.378 138.414 134.136 138.414C117.894 138.414 105.15 128.055 105.15 115.741C105.15 103.426 117.894 93.0676 134.136 93.0676C150.378 93.0676 163.122 103.426 163.122 115.741Z" fill="#FF9538" stroke="#383838" stroke-width="2"/>
</svg>
