<svg width="533" height="344" viewBox="0 0 533 344" fill="none" xmlns="http://www.w3.org/2000/svg">
<path opacity="0.15" fill-rule="evenodd" clip-rule="evenodd" d="M128.949 290C128.794 290 128.638 290.012 128.484 290.036L83.9448 297.036C80.2899 297.611 80.7108 303 84.4106 303H284.063C276.515 304.37 272 306.108 272 308C272 312.418 296.624 316 327 316C357.376 316 382 312.418 382 308C382 306.108 377.485 304.37 369.937 303H384C385.657 303 387 301.657 387 300V293C387 291.343 385.657 290 384 290H128.949Z" fill="#383838"/>
<rect x="77" y="216" width="266" height="4" fill="#383838"/>
<path d="M284 252.429C284 246.328 287.993 241.086 294.025 240.166C303.571 238.711 320.615 237 348 237C375.385 237 392.429 238.711 401.975 240.166C408.007 241.086 412 246.328 412 252.429V255.193C412 263.05 408.553 269.79 400.86 271.388C391.967 273.235 376.115 275 348 275C319.885 275 304.033 273.235 295.14 271.388C287.447 269.79 284 263.05 284 255.193V252.429Z" fill="#383838"/>
<path d="M291.167 247.795C295.546 249.939 312.493 254.91 337.295 253.253" stroke="#818181" stroke-width="2"/>
<path d="M248.143 205C225.342 189.338 283.421 151.487 323 138L310.954 205H266.212H248.143Z" fill="white"/>
<path d="M266.212 205H248.143C225.342 189.338 283.421 151.487 323 138L310.954 205H266.212ZM266.212 205C268.937 200.794 272.235 191.078 263.631 185.857" stroke="#383838" stroke-width="2"/>
<rect x="74" y="204" width="275" height="12" fill="#BE885A"/>
<rect x="101" y="218" width="83" height="8" transform="rotate(90 101 218)" fill="#383838"/>
<rect x="136" y="219" width="76" height="8" transform="rotate(90 136 219)" fill="#383838"/>
<rect x="74" y="211" width="275" height="5" fill="#956842"/>
<path d="M151.786 192.001C153.531 188.51 167.058 159.712 173.603 145.749H198.037L176.221 192.001C174.184 195.928 173.079 203.782 184.947 203.782H158.331C150.477 203.782 149.604 196.364 151.786 192.001Z" fill="#D7D7D7"/>
<path d="M173.603 145.749C167.058 159.712 153.531 188.51 151.786 192.001C149.604 196.364 150.477 203.782 158.331 203.782C161.412 203.782 174.563 203.782 184.947 203.782M173.603 145.749H198.037M173.603 145.749H169.079M205.731 203.782C198.023 203.782 195.738 203.782 184.947 203.782M198.037 145.749L176.221 192.001C174.184 195.928 173.079 203.782 184.947 203.782M198.037 145.749H202.24" stroke="#383838" stroke-width="2"/>
<path d="M183.103 178.042L156.829 181.008L160.219 174.228H184.799L183.103 178.042Z" fill="#383838"/>
<rect x="1.34202" y="0.939693" width="132.523" height="103.696" rx="15" transform="matrix(1 0 0.34202 0.939693 90.8456 75.9148)" fill="#A2A2A2" stroke="#383838" stroke-width="2"/>
<rect x="1.34202" y="0.939693" width="131.191" height="103.708" rx="13" transform="matrix(1 0 0.34202 0.939693 94.5822 71.1548)" fill="#D7D7D7" stroke="#383838" stroke-width="2"/>
<rect x="1.34202" y="0.939693" width="121.36" height="82.5642" rx="9" transform="matrix(1 0 0.34202 0.939693 101.108 75.1775)" fill="#383838" stroke="#383838" stroke-width="2"/>
<path d="M197.529 164.848C195.987 166.358 193.173 166.101 191.244 164.274C189.316 162.447 189.003 159.742 190.546 158.232C192.088 156.722 194.902 156.979 196.831 158.806C197.232 159.186 197.564 159.605 197.823 160.043L200.285 160.043C201.129 160.043 201.956 160.714 202.131 161.542C202.306 162.37 201.764 163.041 200.919 163.041H199.689H198.458C198.344 163.724 198.038 164.351 197.529 164.848Z" fill="#818181"/>
<path d="M428.121 198.824C432.545 198.615 436.635 200.212 439.663 202.96C442.413 199.939 446.33 197.963 450.754 197.754C459.561 197.337 467.042 204.078 467.465 212.81C467.625 216.121 466.747 219.243 465.115 221.866C466.993 224.323 468.168 227.348 468.328 230.66C468.751 239.391 461.954 246.808 453.147 247.224C448.723 247.433 444.633 245.836 441.605 243.088C438.855 246.109 434.938 248.085 430.514 248.294C421.707 248.711 414.226 241.97 413.803 233.238C413.643 229.927 414.521 226.805 416.153 224.182C414.275 221.725 413.1 218.7 412.939 215.388C412.517 206.656 419.314 199.24 428.121 198.824Z" fill="#6FC2FF" stroke="#383838" stroke-width="2"/>
<path d="M349 204L74 204L74 216L349 216" stroke="#383838" stroke-width="2"/>
<path d="M247.544 201.025C246.286 198.888 243.991 197.577 241.512 197.577H185.809C183.33 197.577 181.035 198.888 179.777 201.025L178.174 203.748H249.148L247.544 201.025Z" fill="#A2A2A2" stroke="#383838" stroke-width="2"/>
<path d="M275.316 201.025C274.058 198.888 271.764 197.577 269.285 197.577H204.324C201.845 197.577 199.55 198.888 198.292 201.025L196.689 203.748H276.92L275.316 201.025Z" fill="#D9D9D9" stroke="#383838" stroke-width="2"/>
<path d="M127.282 132.442C126.853 135.633 118.129 137.092 107.798 135.701C97.4663 134.31 89.4393 130.595 89.869 127.404C90.2987 124.213 99.0222 122.754 109.354 124.145C119.685 125.536 127.712 129.251 127.282 132.442Z" fill="#FF7169"/>
<path d="M127.282 132.442C126.853 135.633 118.129 137.092 107.798 135.701C97.4663 134.31 89.4393 130.595 89.869 127.404L86.5525 152.034C86.4878 152.515 86.5868 153.001 86.8865 153.381C88.263 155.125 93.1165 160.143 104.304 161.65C115.491 163.156 121.499 159.6 123.288 158.282C123.677 157.995 123.901 157.553 123.966 157.072L127.282 132.442Z" fill="#FF7169"/>
<path d="M127.282 132.442C126.853 135.633 118.129 137.092 107.798 135.701C97.4663 134.31 89.4393 130.595 89.869 127.404M127.282 132.442C127.712 129.251 119.685 125.536 109.354 124.145C99.0222 122.754 90.2987 124.213 89.869 127.404M127.282 132.442L123.966 157.072C123.901 157.553 123.677 157.995 123.288 158.282C121.499 159.6 115.491 163.156 104.304 161.65C93.1165 160.143 88.263 155.125 86.8865 153.381C86.5868 153.001 86.4878 152.515 86.5525 152.034L89.869 127.404" stroke="#383838" stroke-width="2" stroke-miterlimit="10"/>
<path d="M188.859 250.461C189.333 249.855 190.23 249.751 190.83 250.234L194.243 252.98C194.806 253.432 194.899 254.237 194.454 254.806L191.755 258.257C191.281 258.863 190.384 258.967 189.784 258.484L186.37 255.738C185.807 255.286 185.715 254.481 186.16 253.912L188.859 250.461Z" fill="#FFDE00" stroke="#383838" stroke-width="2" stroke-miterlimit="10"/>
<path d="M409.315 19.4274C410.172 18.7223 411.467 18.8569 412.16 19.7232L416.106 24.6538C416.757 25.4667 416.636 26.6282 415.832 27.2898L410.956 31.303C410.099 32.0081 408.804 31.8734 408.111 31.0071L404.165 26.0765C403.514 25.2636 403.635 24.1022 404.439 23.4405L409.315 19.4274Z" fill="#FFDE00" stroke="#383838" stroke-width="2" stroke-miterlimit="10"/>
<path d="M232.337 54.0799C232.881 56.026 231.385 57.9426 229.365 57.8868L216.722 57.5371C214.262 57.4691 212.926 54.6317 214.44 52.6921L223.677 40.8615C225.191 38.9219 228.268 39.5299 228.93 41.8997L232.337 54.0799Z" fill="#6FC2FF" stroke="#383838" stroke-width="2" stroke-miterlimit="10"/>
<path d="M303.905 222.414L301.287 217.686C301.287 217.686 253.755 247.521 250.337 250.91C246.647 254.569 253.123 257.043 255.347 254.838C261.826 248.414 303.905 222.414 303.905 222.414Z" fill="#FF9538" stroke="#383838" stroke-width="2" stroke-miterlimit="10"/>
<path d="M219.993 223.691C230.382 244.32 252.644 267.848 257.74 265.498C263.522 262.832 257.714 232.527 251.166 211.622C252.31 225.576 225.487 230.433 219.993 223.691Z" fill="#FF9538" stroke="#383838" stroke-width="2"/>
<path d="M282.54 200.999C282.54 177.363 286.057 159.873 293.413 146.165C307.075 120.703 333.889 125.654 351.125 134.422C387.054 153.129 398.368 170.578 400.477 198.353C400.477 198.353 412.215 248.684 346.359 248.684C280.504 248.684 282.54 200.999 282.54 200.999Z" fill="white" stroke="#383838" stroke-width="2"/>
<path d="M295.013 102.726C298.869 53.4231 338.739 36.5586 355.398 74.0491C364.544 94.6302 359.764 129.838 374.333 144.002L300.274 157.762C298.25 149.668 297.847 136.72 300.274 121.341L297.905 116.354C296.459 114.953 294.964 114.316 294.892 110.01C294.851 107.573 294.888 105.143 295.013 102.726Z" fill="white"/>
<path d="M374.333 144.002C359.764 129.838 364.544 94.6302 355.398 74.0491C338.739 36.5586 298.869 53.4231 295.013 102.726C294.888 105.143 294.851 107.573 294.892 110.01M300.274 157.762C298.25 149.668 297.847 136.72 300.274 121.341M294.892 110.01C295.012 117.139 299.03 114.212 300.274 121.341M294.892 110.01L300.274 121.341" stroke="#383838" stroke-width="2" stroke-miterlimit="10"/>
<path fill-rule="evenodd" clip-rule="evenodd" d="M313.005 97.4761C317.164 102.26 324.701 107.506 336.777 108.386C345.862 109.048 343.136 119.046 337.146 119.561C334.342 119.803 330.065 124.762 325.402 129.271C320.188 134.312 315.253 136.632 309.109 136.834C298.025 137.2 292.171 125.648 291.172 119.384C279.377 122.202 251.875 124.255 251.574 115.14C251.349 108.304 265.573 108.303 277.276 109.35C302.865 108.67 309.964 100.916 313.005 97.4761ZM330.655 114.981C323.662 119.207 309.701 123.663 297.562 120.867C297.954 121.825 298.331 122.858 298.719 123.919C300.517 128.845 304.062 131.875 308.943 131.714C315.757 131.489 324.914 124.28 329.399 117.008C329.847 116.28 330.267 115.599 330.655 114.981Z" fill="#FF9538"/>
<path d="M297.562 120.867C309.701 123.663 323.662 119.207 330.655 114.981C330.267 115.599 329.847 116.28 329.399 117.008C324.914 124.28 315.757 131.489 308.943 131.714C304.062 131.875 300.517 128.845 298.719 123.919C298.331 122.858 297.954 121.825 297.562 120.867Z" fill="#383838"/>
<path d="M330.655 114.981C323.662 119.207 309.701 123.663 297.562 120.867M330.655 114.981C330.928 115.238 332.764 116.265 335.769 115.405M330.655 114.981C330.267 115.599 329.847 116.28 329.399 117.008C324.914 124.28 315.757 131.489 308.943 131.714C304.062 131.875 300.517 128.845 298.719 123.919C298.331 122.858 297.954 121.825 297.562 120.867M297.562 120.867C295.276 120.34 293.153 119.845 291.172 119.384M261.927 115.013C267.979 114.813 279.999 116.783 291.172 119.384M296.652 113.653C288.499 113.186 283.643 110.138 277.276 109.35M277.276 109.35C265.573 108.303 251.349 108.304 251.574 115.14C251.875 124.255 279.377 122.202 291.172 119.384M277.276 109.35C302.865 108.67 309.964 100.916 313.005 97.4761C317.164 102.26 324.701 107.506 336.777 108.386C345.862 109.048 343.136 119.046 337.146 119.561C334.342 119.803 330.065 124.762 325.402 129.271C320.188 134.312 315.253 136.632 309.109 136.834C298.025 137.2 292.171 125.648 291.172 119.384" stroke="#383838" stroke-width="2"/>
<path fill-rule="evenodd" clip-rule="evenodd" d="M354.251 80.4896L365.522 76.0728C365.192 59.1411 355.413 27.8523 318.945 38.1511C321.078 38.0608 323.662 38.2994 326.453 39.0161C337.666 41.8962 352.212 52.4964 354.251 80.4896Z" fill="#16AA98"/>
<path d="M318.945 38.1511C311.174 40.3455 300.365 52.0229 302.337 74.3962C304.324 70.3493 308.308 64.9659 310.661 62.2555C312.418 45.6633 323.558 39.4457 326.453 39.0161C323.662 38.2994 321.078 38.0608 318.945 38.1511Z" fill="#107367"/>
<path d="M318.945 38.1511C355.413 27.8523 365.192 59.1411 365.522 76.0728L354.251 80.4896C352.212 52.4964 337.666 41.8962 326.453 39.0161M318.945 38.1511C311.174 40.3455 300.365 52.0229 302.337 74.3962C304.324 70.3493 308.308 64.9659 310.661 62.2555C312.418 45.6633 323.558 39.4457 326.453 39.0161M318.945 38.1511C321.078 38.0608 323.662 38.2994 326.453 39.0161" stroke="#383838" stroke-width="2"/>
<path d="M378.195 88.9649C378.195 100.73 370.813 109.818 362.198 109.818C353.582 109.818 346.201 100.73 346.201 88.9649C346.201 77.1996 353.582 68.1117 362.198 68.1117C370.813 68.1117 378.195 77.1996 378.195 88.9649Z" fill="#16AA98" stroke="#383838" stroke-width="2"/>
<path d="M379.004 88.9649C379.004 93.7075 377.691 97.9569 375.622 100.993C373.548 104.033 370.788 105.771 367.863 105.771C364.938 105.771 362.178 104.033 360.105 100.993C358.035 97.9569 356.722 93.7075 356.722 88.9649C356.722 84.2223 358.035 79.9729 360.105 76.9373C362.178 73.8966 364.938 72.1586 367.863 72.1586C370.788 72.1586 373.548 73.8966 375.622 76.9373C377.691 79.9729 379.004 84.2223 379.004 88.9649Z" fill="#16AA98" stroke="#383838" stroke-width="2"/>
<path d="M297.481 84.1841C297.141 90.4909 299.624 95.764 303.019 95.9502C306.033 96.1134 308.746 92.2374 309.566 86.978C309.635 86.5019 309.391 86.0291 308.951 85.803L304.37 83.4478C303.463 82.9877 303.551 81.6677 304.507 81.3163L308.418 79.8961C308.962 79.7029 309.289 79.1201 309.13 78.5574C308.197 75.3788 306.409 73.2121 304.257 73.1024C300.863 72.9163 297.835 77.8874 297.495 84.1942L297.481 84.1841Z" fill="#383838"/>
<path d="M320.86 84.1905C320.52 90.4973 323.003 95.7704 326.398 95.9565C329.412 96.1197 332.125 92.2438 332.944 86.9843C333.014 86.5083 332.77 86.0354 332.33 85.8094L327.748 83.4542C326.842 82.9941 326.93 81.6741 327.886 81.3227L331.797 79.9025C332.341 79.7092 332.668 79.1264 332.509 78.5638C331.576 75.3852 329.788 73.2184 327.636 73.1088C324.241 72.9227 321.214 77.8938 320.874 84.2006L320.86 84.1905Z" fill="#383838"/>
<path d="M331.64 229.347L327.716 224.82C327.716 224.82 282.908 257.104 279.676 260.671C276.187 264.522 282.787 266.646 284.89 264.325C291.015 257.563 331.64 229.347 331.64 229.347Z" fill="#FF9538" stroke="#383838" stroke-width="2" stroke-miterlimit="10"/>
<path d="M246.355 235.387C259.415 254.877 284.806 275.801 289.649 272.793C295.143 269.381 285.486 239.562 276.264 219.31C279.167 233.232 252.738 241.494 246.355 235.387Z" fill="#FF9538" stroke="#383838" stroke-width="2"/>
<path d="M313.885 222.487C313.905 226.348 318.385 234.799 336.145 237.714C352.018 225.343 315.762 212.514 313.885 222.487Z" fill="white"/>
<path d="M313.867 222.372C313.875 226.269 318.34 234.791 336.136 237.697" stroke="#383838" stroke-width="2"/>
<path d="M139.405 90.8976L134.236 93.4632L133.816 92.3107L137.779 90.3214L132.373 88.3458L131.944 87.1659L138.99 89.7589L139.405 90.8976Z" fill="white"/>
<path d="M129.59 95.9194H128.407L128.354 84.4224H129.537L129.59 95.9194Z" fill="white"/>
<path d="M125.618 92.3107L126.038 93.4632L119.001 90.8976L118.587 89.7589L123.746 87.1659L124.175 88.3458L120.208 90.3214L125.618 92.3107Z" fill="white"/>
<path fill-rule="evenodd" clip-rule="evenodd" d="M139.405 90.8982L138.99 89.7595L131.944 87.1665L132.373 88.3464L137.779 90.322L133.816 92.3114L134.236 93.4638L139.405 90.8982ZM137.159 90.3228L133.505 92.1569L134.115 93.833L139.716 91.0533L139.189 89.6051L131.554 86.7957L132.175 88.5013L137.159 90.3228Z" fill="white"/>
<path fill-rule="evenodd" clip-rule="evenodd" d="M129.86 96.1588H128.139L128.084 84.1831H129.805L129.86 96.1588ZM129.59 95.9195H128.407L128.354 84.4224H129.537L129.59 95.9195Z" fill="white"/>
<path fill-rule="evenodd" clip-rule="evenodd" d="M125.618 92.3114L120.208 90.322L124.175 88.3464L123.746 87.1665L118.587 89.7595L119.001 90.8982L126.038 93.4638L125.618 92.3114ZM120.828 90.3228L124.486 88.5013L123.865 86.7957L118.276 89.6051L118.803 91.0533L126.427 93.833L125.817 92.1569L120.828 90.3228Z" fill="white"/>
<path d="M180.219 107.136H123.529" stroke="white" stroke-width="1.45067"/>
<path d="M161.236 132.172H132.814" stroke="white" stroke-width="1.45067"/>
<path d="M168.858 115.03H126.401" stroke="white" stroke-width="1.45067"/>
<path d="M208.262 115.03H173.441" stroke="white" stroke-width="1.45067"/>
<path d="M178.1 123.64H140.224" stroke="white" stroke-width="1.45067"/>
<path d="M412.417 134H336.245C327.579 134 318 140.923 318 158C318 175.077 320.464 236 339.357 236L410.411 236C432.942 236 432.03 174.154 432.942 158C433.855 141.846 423.82 134 412.417 134Z" fill="#383838"/>
<path d="M349 143C366.518 143 394.609 143 405.038 143C415.467 143 425 148.945 425 162.024C425 171.404 423.859 193.732 419.297 208" stroke="#818181" stroke-width="2"/>
<rect x="363" y="229" width="28" height="23" fill="#383838"/>
<path d="M416.401 147.852C414.684 102.705 360.361 126.793 346.437 135.323C332.513 143.854 321.624 160.151 318.613 168.18C315.602 176.209 314.594 194.955 327.179 187.688C329.342 186.439 331.272 185.225 332.987 184.054C332.944 184.283 332.901 184.515 332.861 184.75C329.199 205.794 346.191 200.632 353.153 195.905C358.284 192.421 362.357 189.13 365.551 186.113C365.186 188.962 364.966 192.182 364.947 195.8C367.513 234.574 418.117 192.999 416.401 147.852Z" fill="white" stroke="#383838" stroke-width="2" stroke-miterlimit="10"/>
<rect x="326.975" y="269.068" width="28.3624" height="10.3996" fill="#383838"/>
<rect x="334.538" y="274.741" width="13.2358" height="13.2358" fill="#383838"/>
<path d="M294.831 300.267V300.267C294.831 294.524 299.487 289.868 305.23 289.868H377.082C382.825 289.868 387.481 294.524 387.481 300.267V300.267" stroke="#383838" stroke-width="7"/>
<path d="M335.483 289.868V289.868C343.838 289.868 350.61 296.64 350.61 304.994V306.885" stroke="#383838" stroke-width="7"/>
<circle cx="350.71" cy="310.209" r="6.79161" fill="#383838"/>
<path d="M354.785 310.208C354.785 307.958 352.961 306.133 350.71 306.133" stroke="#818181" stroke-width="2"/>
<circle cx="294.566" cy="304.775" r="6.79161" fill="#383838"/>
<path d="M298.641 304.775C298.641 302.525 296.816 300.7 294.566 300.7" stroke="#818181" stroke-width="2"/>
<circle cx="386.931" cy="304.775" r="6.79161" fill="#383838"/>
<path d="M391.007 304.775C391.007 302.525 389.182 300.7 386.932 300.7" stroke="#818181" stroke-width="2"/>
</svg>
