<svg width="298" height="267" viewBox="0 0 298 267" fill="none" xmlns="http://www.w3.org/2000/svg">
<path d="M149.565 99.7858C107.885 96.8156 76.6698 99.3693 23.6068 136.149L26.2079 170.157C26.2079 170.157 117.892 138.55 138.411 143.556C158.931 148.562 149.565 99.7858 149.565 99.7858Z" fill="white" stroke="#383838" stroke-width="2.32829" stroke-miterlimit="10"/>
<path d="M196.462 170.043L198.509 240.294L138.526 239.952L138.529 239.339C138.529 239.339 186.001 222.571 190.727 209.605C196.946 192.479 190.589 169.52 190.589 169.52L196.462 170.043Z" fill="#FF9538" stroke="#383838" stroke-width="2.32829" stroke-miterlimit="10"/>
<path d="M196.8 196.094L196.388 182.607L190.514 182.084C190.514 182.084 192.074 187.609 192.888 195.213C194.111 195.466 195.455 195.841 196.8 196.094Z" fill="#383838"/>
<path d="M213.692 170.145L210.843 240.369L270.826 240.711L270.83 240.098C270.83 240.098 223.552 222.789 218.975 209.769C212.952 192.574 219.571 169.689 219.571 169.689L213.692 170.145Z" fill="#FF9538" stroke="#383838" stroke-width="2.32829" stroke-miterlimit="10"/>
<path d="M213.056 196.186L213.622 182.705L219.501 182.249C219.501 182.249 217.878 187.755 216.978 195.35C215.752 195.589 214.404 195.949 213.056 196.186Z" fill="#383838"/>
<path d="M279.137 148.878C274.216 176.601 231.607 191.566 183.967 182.304C166.952 178.996 157.414 174.625 141.723 162.263C121.135 146.044 113.014 122.067 136.637 100.764C139.554 72.34 154.144 72.6482 201.784 81.9103C249.425 91.1724 284.057 121.155 279.137 148.878Z" fill="white" stroke="#383838" stroke-width="2.32829" stroke-miterlimit="10"/>
<path d="M153.381 169.684C153.381 169.684 134.728 161.199 121.924 137.776C107.547 116.474 105.029 88.6643 106.166 77.4234C104.376 14.9895 150.724 -6.16972 169.765 27.7364C176.081 38.9909 175.346 84.0047 200.502 94.8334L167.009 114.594L156.731 166.672L153.381 169.684Z" fill="white"/>
<path d="M198.907 92.0188C175.138 82.0958 180.205 52.9841 171.873 33.9417C153.866 -7.21513 111.306 10.5374 106.775 64.5003C104.33 107.085 115.666 148.417 153.223 170.563" stroke="#383838" stroke-width="2.32829" stroke-miterlimit="10"/>
<path d="M286.116 149.701C281.074 172.825 251.475 156.295 236.97 141.218C233.222 137.322 230.482 133.523 229.434 130.531C226.282 121.65 233.364 117.893 235.563 129.644C236.402 134.08 236.852 137.921 236.97 141.218C238.368 180.132 193.607 143.398 198.157 117.71" fill="white"/>
<path d="M286.116 149.701C281.074 172.825 251.475 156.295 236.97 141.218C236.852 137.921 236.402 134.08 235.563 129.644C233.364 117.893 226.282 121.65 229.434 130.531C230.482 133.523 233.222 137.322 236.97 141.218C238.368 180.132 193.607 143.398 198.157 117.71C201.233 84.9271 234.135 94.8486 252.011 104.167C282.252 125.134 288.231 143.54 286.116 149.701Z" fill="white"/>
<path d="M198.155 117.711C193.219 145.575 246.305 186.437 235.561 129.644C233.362 117.893 226.28 121.65 229.432 130.531C234.539 145.107 279.769 178.8 286.113 149.701C288.229 143.54 285.094 125.911 255.63 104.687" stroke="#383838" stroke-width="2.32829" stroke-miterlimit="10"/>
<path d="M118.509 49.9904C118.391 55.8262 120.848 60.6194 123.99 60.6857C126.779 60.7426 129.164 57.0781 129.757 52.1947C129.807 51.7528 129.567 51.3237 129.153 51.1286L124.848 49.0959C123.996 48.6991 124.037 47.4772 124.909 47.1228L128.477 45.6893C128.973 45.4939 129.257 44.9454 129.093 44.4307C128.133 41.5238 126.413 39.5782 124.422 39.5439C121.281 39.4777 118.64 44.1635 118.522 49.9993L118.509 49.9904Z" fill="#383838"/>
<path d="M143.144 50.1286C143.026 55.9644 145.483 60.7576 148.625 60.8238C151.414 60.8807 153.799 57.2163 154.392 52.3329C154.442 51.891 154.202 51.4619 153.788 51.2668L149.483 49.234C148.631 48.8373 148.672 47.6154 149.544 47.261L153.112 45.8275C153.608 45.6321 153.892 45.0836 153.728 44.5689C152.768 41.662 151.048 39.7163 149.057 39.6821C145.916 39.6159 143.275 44.3017 143.157 50.1375L143.144 50.1286Z" fill="#383838"/>
<path d="M122.391 247.516C122.498 248.154 122.215 249.049 121.093 250.197C119.992 251.324 118.249 252.514 115.937 253.676C111.328 255.993 104.7 258.077 97.1544 259.341C89.6088 260.605 82.6641 260.794 77.551 260.106C74.9871 259.761 72.9516 259.204 71.5435 258.497C70.108 257.777 69.5489 257.023 69.4421 256.386C69.3352 255.748 69.6183 254.853 70.7407 253.704C71.8417 252.578 73.5845 251.387 75.8959 250.226C80.5057 247.909 87.1331 245.825 94.6788 244.561C102.224 243.297 109.169 243.107 114.282 243.796C116.846 244.141 118.882 244.698 120.29 245.405C121.725 246.125 122.284 246.878 122.391 247.516Z" fill="#E1E1E1" stroke="#383838" stroke-width="2.32829"/>
<path d="M100.363 259.069C79.7229 261.007 70.8079 254.754 84.1917 247.331C79.0034 248.052 68.9882 252.269 69.5795 256.809C70.3417 262.661 90.5114 261.005 100.363 259.069Z" fill="#383838"/>
<path d="M91.0609 250.578C81.1055 206.026 77.4883 200.433 65.4898 191.284L93.7463 183.515C86.4354 193.441 94.3754 231.638 99.9683 248.938C100.029 249.125 99.9635 249.322 99.8054 249.438C96.4678 251.884 92.7196 251.636 91.2684 250.866C91.16 250.808 91.0877 250.698 91.0609 250.578Z" fill="#E1E1E1" stroke="#383838" stroke-width="2.32829"/>
<path d="M82.4676 206.363C80.6797 199.637 87.738 193.072 91.4907 190.63L91.5218 187.836L66.3261 192.212C67.948 192.929 72.3818 196.238 77.1415 203.742C83.091 213.122 90.6051 249.296 91.288 250.701C91.8343 251.825 94.1542 251.199 95.2459 250.745C91.8003 246.515 84.7024 214.77 82.4676 206.363Z" fill="#383838"/>
<path d="M35.8209 119.249C26.1026 126.452 35.8049 171.467 47.6813 184.782C54.4589 193.013 73.1266 193.528 74.9427 193.401C60.7089 165.092 56.9239 137.624 58.9135 126.003C51.0477 126.261 38.7001 122.053 35.8209 119.249Z" fill="#E1E1E1"/>
<path d="M74.9427 193.401C76.7589 193.275 99.6619 186.967 104.846 177.54C107.087 173.033 105.853 134.319 92.6975 113.115C89.5211 116.565 68.7459 125.682 58.9135 126.003C56.9239 137.624 60.7089 165.092 74.9427 193.401Z" fill="#E1E1E1"/>
<path d="M92.6975 113.115C89.9037 109.683 69.4123 108.935 65.0534 109.237C59.9552 109.591 45.5393 112.045 35.8209 119.249C38.7001 122.053 51.0477 126.261 58.9135 126.003C68.7459 125.682 89.5211 116.565 92.6975 113.115Z" fill="#E1E1E1"/>
<path d="M35.8209 119.249C26.1026 126.452 35.8049 171.467 47.6813 184.782C54.4589 193.013 73.1266 193.528 74.9427 193.401M35.8209 119.249C45.5393 112.045 59.9552 109.591 65.0534 109.237C69.4123 108.935 89.9037 109.683 92.6975 113.115M35.8209 119.249C38.7001 122.053 51.0477 126.261 58.9135 126.003M74.9427 193.401C76.7589 193.275 99.6619 186.967 104.846 177.54C107.087 173.033 105.853 134.319 92.6975 113.115M74.9427 193.401C60.7089 165.092 56.9239 137.624 58.9135 126.003M92.6975 113.115C89.5211 116.565 68.7459 125.682 58.9135 126.003" stroke="#383838" stroke-width="2.32829"/>
<path d="M74.6964 193.234C51.4377 177.806 36.2153 156.947 36.6325 119.464L35.4705 119.1C34.0681 119.92 31.4557 125.375 32.2257 140.634C33.1882 159.709 44.9316 181.644 48.888 186.064C52.0531 189.6 69.788 192.612 74.6964 193.234Z" fill="#383838"/>
<path d="M31.75 133.938L59.5825 143.975L74.7756 138.812" stroke="#383838" stroke-width="5.58789"/>
<path d="M35.6384 152.408L64.2016 163.434L78.72 158.086" stroke="#383838" stroke-width="5.58789"/>
<path d="M41.0444 170.253L69.1559 181.31L83.5704 175.427" stroke="#383838" stroke-width="5.58789"/>
<path d="M85.4346 134.886L99.0977 129.25" stroke="#383838" stroke-width="5.58789"/>
<path d="M89.8766 153.835L104.022 147.645" stroke="#383838" stroke-width="5.58789"/>
<path d="M93.6205 170.238L105.247 165.265" stroke="#383838" stroke-width="5.58789"/>
<path d="M61.2576 209.774C64.7484 209.987 67.6768 208.959 68.1251 205.238C69.401 194.003 53.489 174.468 44.4779 169.805C43.4753 169.276 40.2937 169.035 37.9117 169.278C34.6848 161.682 31.0704 148.461 30.6205 131.067C7.48578 145.836 1.71151 161.201 1.37962 176.704C0.51722 213.978 56.7429 232.12 63.9167 227.168C68.5894 223.942 66.2018 216.074 61.2576 209.774Z" fill="white"/>
<path d="M61.2611 209.182C64.752 209.395 67.6804 208.367 68.1286 204.646C69.4046 193.411 53.4925 173.876 44.4815 169.213C43.409 168.648 39.8578 168.41 37.4506 168.744C36.7789 168.838 36.1962 168.975 35.7813 169.163C32.5454 170.625 34.0645 180.265 40.3083 177.953C45.1098 176.174 40.2503 172.489 37.4506 168.744C39.8578 168.41 43.409 168.648 44.4815 169.213C53.4925 173.876 69.4046 193.411 68.1286 204.646C67.6804 208.367 64.752 209.395 61.2611 209.182C58.6146 205.81 55.2355 202.888 51.8147 201.367C39.9662 196.134 40.3108 200.785 49.7486 205.66C52.296 206.976 57.1657 208.933 61.2611 209.182Z" fill="white"/>
<path d="M36.0173 127.833C9.36188 141.77 1.7077 160.707 1.3758 176.21C0.513398 213.484 56.7464 231.528 63.9203 226.576C71.0941 221.624 61.6265 205.728 51.8147 201.367C39.9662 196.134 40.3108 200.785 49.7486 205.66C54.4674 208.098 67.1545 212.733 68.1286 204.646C69.4046 193.411 53.4925 173.876 44.4815 169.213C43.1097 168.49 37.6829 168.304 35.7813 169.163C32.5454 170.625 34.0645 180.265 40.3083 177.953C46.5521 175.64 36.459 170.103 35.8028 165.403" stroke="#383838" stroke-width="2.32829" stroke-miterlimit="10"/>
<path d="M110.495 82.3378C127.298 75.0044 135.304 61.3617 135.304 61.3617C134.633 71.3804 161.636 72.5919 163.798 84.0022C165.57 93.3539 161.455 112.203 135.963 115.877C124.583 117.348 99.4995 116.872 92.9131 104.999C87.9448 104.654 84.5123 103.671 82.1523 103.118C69.6056 100.738 60.9371 95.178 71.957 92.5032C88.4388 88.5027 95.7924 88.7545 110.495 82.3378Z" fill="#FF9538"/>
<path d="M146.121 84.3218C142.297 90.3862 126.924 100.547 113.69 102.726C106.332 103.938 99.0613 105.425 92.9131 104.999M92.9131 104.999C87.9448 104.654 84.5123 103.671 82.1523 103.118C69.6056 100.738 60.9371 95.178 71.957 92.5032C88.4388 88.5027 95.7924 88.7545 110.495 82.3378C127.298 75.0044 135.304 61.3617 135.304 61.3617C134.633 71.3804 161.636 72.5919 163.798 84.0022C165.57 93.3539 161.455 112.203 135.963 115.877C124.583 117.348 99.4995 116.872 92.9131 104.999Z" stroke="#383838" stroke-width="2.32829"/>
<path d="M135.13 106.311C148.04 100.787 147.333 90.7393 146.35 84.0473C128.388 107.735 97.9294 104.091 94.5748 106.144C91.2203 108.197 118.992 113.215 135.13 106.311Z" fill="#383838" stroke="#383838" stroke-width="2.32829" stroke-linejoin="bevel"/>
<path d="M145.598 87.0705C133.045 101.889 107.951 105.742 97.7261 106.098C101.606 107.422 115.368 107.381 128.393 101.732C141.418 96.0831 145.176 89.8194 145.598 87.0705Z" fill="white"/>
</svg>
