<svg width="160" height="160" viewBox="0 0 160 160" fill="none" xmlns="http://www.w3.org/2000/svg">
<path d="M102.182 68.5664L114.318 68.5663C122.603 68.5662 129.318 61.7842 129.318 53.5V53.5" stroke="#383838" stroke-width="2" stroke-miterlimit="3.99933" stroke-dasharray="4 4"/>
<circle cx="3" cy="3" r="3" transform="matrix(0.999543 0.0302129 0.0302129 -0.999543 125.5 56.9971)" fill="#383838"/>
<path d="M41 102.547L45.6386 108.022L46.0383 108.494L46.6389 108.347L53.6098 106.644L54.1444 113.8L54.1905 114.417L54.7626 114.651L61.403 117.371L57.6294 123.474L57.3043 124L57.6294 124.526L61.403 130.629L54.7626 133.349L54.1905 133.583L54.1444 134.2L53.6098 141.356L46.6389 139.653L46.0383 139.506L45.6386 139.978L41 145.453L36.3614 139.978L35.9617 139.506L35.3611 139.653L28.3902 141.356L27.8556 134.2L27.8095 133.583L27.2374 133.349L20.597 130.629L24.3706 124.526L24.6957 124L24.3706 123.474L20.597 117.371L27.2374 114.651L27.8095 114.417L27.8556 113.8L28.3902 106.644L35.3611 108.347L35.9617 108.494L36.3614 108.022L41 102.547Z" fill="#FFDE00" stroke="#383838" stroke-width="2"/>
<rect x="34" y="37" width="70" height="96" rx="8" fill="#383838"/>
<rect x="41" y="32" width="68" height="94" rx="7" fill="#F4EFEA"/>
<rect x="41" y="32" width="68" height="94" rx="7" stroke="#383838" stroke-width="2"/>
<path d="M98 71H52" stroke="#383838" stroke-width="2"/>
<path d="M98 55L52 55.0001" stroke="#383838" stroke-width="2"/>
<path d="M98 87H52" stroke="#383838" stroke-width="2"/>
<path d="M98 103H52" stroke="#383838" stroke-width="2"/>
<path d="M142.408 112.545C141.701 112.059 140.713 112.249 140.237 112.963L137.526 117.025C137.079 117.695 137.25 118.581 137.914 119.037L141.938 121.803C142.646 122.289 143.634 122.099 144.11 121.385L146.821 117.323C147.268 116.653 147.097 115.766 146.433 115.31L142.408 112.545Z" fill="white" stroke="#383838" stroke-width="2" stroke-miterlimit="10"/>
<rect x="94.2105" y="20.2105" width="43.5789" height="24.2105" rx="8.47368" fill="#FFDE00" stroke="#383838" stroke-width="2.42105"/>
<path fill-rule="evenodd" clip-rule="evenodd" d="M112.721 26.6182C113.194 27.091 113.194 27.8574 112.721 28.3302L109.239 31.8126L112.721 35.295C113.194 35.7678 113.194 36.5342 112.721 37.007C112.249 37.4797 111.482 37.4797 111.009 37.007L106.671 32.6686C106.198 32.1958 106.198 31.4294 106.671 30.9566L111.009 26.6182C111.482 26.1455 112.249 26.1455 112.721 26.6182ZM118.856 26.6182C119.329 26.1455 120.095 26.1455 120.568 26.6182L124.906 30.9566C125.379 31.4294 125.379 32.1958 124.906 32.6686L120.568 37.007C120.095 37.4797 119.329 37.4797 118.856 37.007C118.383 36.5342 118.383 35.7678 118.856 35.295L122.338 31.8126L118.856 28.3302C118.383 27.8574 118.383 27.091 118.856 26.6182Z" fill="#383838"/>
<path d="M18.2385 18.2512C22.1393 17.1941 25.0382 15.3662 24.7137 14.1685C24.3891 12.9709 20.9638 12.8569 17.0631 13.914C13.1623 14.9711 10.2631 16.7991 10.5877 17.9968C10.9123 19.1944 14.3377 19.3083 18.2385 18.2512Z" fill="#F4EFEA"/>
<path d="M20.8413 27.856C23.8875 27.0305 25.5764 25.6743 26.4472 24.706C27.0576 24.0271 27.1278 23.0766 26.889 22.1955L25.901 18.5499L25.2225 16.0463L24.8833 14.7944L24.7137 14.1685C25.0382 15.3662 22.1393 17.1941 18.2385 18.2512C14.3377 19.3083 10.9123 19.1944 10.5877 17.9968L10.7573 18.6227L11.0966 19.8745L11.7751 22.3781L12.7631 26.0237C13.0019 26.9049 13.5424 27.6898 14.412 27.9676C15.6526 28.3637 17.7952 28.6815 20.8413 27.856Z" fill="#F4EFEA"/>
<path d="M10.5877 17.9968L10.7573 18.6227L11.0966 19.8745L11.7751 22.3781L12.7631 26.0237C13.0019 26.9049 13.5424 27.6898 14.412 27.9676C15.6526 28.3637 17.7952 28.6815 20.8413 27.856C23.8875 27.0305 25.5764 25.6743 26.4472 24.706C27.0576 24.0271 27.1278 23.0766 26.889 22.1955L25.901 18.5499L25.2225 16.0463L24.8833 14.7944L24.7137 14.1685M10.5877 17.9968C10.9123 19.1944 14.3377 19.3083 18.2385 18.2512C22.1393 17.1941 25.0382 15.3662 24.7137 14.1685M10.5877 17.9968C10.2631 16.7991 13.1623 14.9711 17.0631 13.914C20.9638 12.8569 24.3891 12.9709 24.7137 14.1685" stroke="#383838" stroke-width="2" stroke-miterlimit="10"/>
</svg>
