<svg width="32" height="32" viewBox="0 0 32 32" fill="none" xmlns="http://www.w3.org/2000/svg">
  <rect width="32" height="32" rx="16" fill="#F4EFE9"/>
  <g transform="translate(2, 2) scale(0.09)">
    <path d="M295.013 102.726C298.869 53.4231 338.739 36.5586 355.398 74.0491C364.544 94.6302 359.764 129.838 374.333 144.002L300.274 157.762C298.25 149.668 297.847 136.72 300.274 121.341L297.905 116.354C296.459 114.953 294.964 114.316 294.892 110.01C294.851 107.573 294.888 105.143 295.013 102.726Z" fill="white"/>
    <path d="M374.333 144.002C359.764 129.838 364.544 94.6302 355.398 74.0491C338.739 36.5586 298.869 53.4231 295.013 102.726C294.888 105.143 294.851 107.573 294.892 110.01M300.274 157.762C298.25 149.668 297.847 136.72 300.274 121.341M294.892 110.01C295.012 117.139 299.03 114.212 300.274 121.341M294.892 110.01L300.274 121.341" stroke="#383838" stroke-width="2" stroke-miterlimit="10"/>
    <path fill-rule="evenodd" clip-rule="evenodd" d="M313.005 97.4761C317.164 102.26 324.701 107.506 336.777 108.386C345.862 109.048 343.136 119.046 337.146 119.561C334.342 119.803 330.065 124.762 325.402 129.271C320.188 134.312 315.253 136.632 309.109 136.834C298.025 137.2 292.171 125.648 291.172 119.384C279.377 122.202 251.875 124.255 251.574 115.14C251.349 108.304 265.573 108.303 277.276 109.35C302.865 108.67 309.964 100.916 313.005 97.4761ZM330.655 114.981C323.662 119.207 309.701 123.663 297.562 120.867C297.954 121.825 298.331 122.858 298.719 123.919C300.517 128.845 304.062 131.875 308.943 131.714C315.757 131.489 324.914 124.28 329.399 117.008C329.847 116.28 330.267 115.599 330.655 114.981Z" fill="#FF9538"/>
    <path d="M297.562 120.867C309.701 123.663 323.662 119.207 330.655 114.981C330.267 115.599 329.847 116.28 329.399 117.008C324.914 124.28 315.757 131.489 308.943 131.714C304.062 131.875 300.517 128.845 298.719 123.919C298.331 122.858 297.954 121.825 297.562 120.867Z" fill="#383838"/>
    <path d="M330.655 114.981C323.662 119.207 309.701 123.663 297.562 120.867M330.655 114.981C330.928 115.238 332.764 116.265 335.769 115.405M330.655 114.981C330.267 115.599 329.847 116.28 329.399 117.008C324.914 124.28 315.757 131.489 308.943 131.714C304.062 131.875 300.517 128.845 298.719 123.919C298.331 122.858 297.954 121.825 297.562 120.867M297.562 120.867C295.276 120.34 293.153 119.845 291.172 119.384M261.927 115.013C267.979 114.813 279.999 116.783 291.172 119.384M296.652 113.653C288.499 113.186 283.643 110.138 277.276 109.35M277.276 109.35C265.573 108.303 251.349 108.304 251.574 115.14C251.875 124.255 279.377 122.202 291.172 119.384M277.276 109.35C302.865 108.67 309.964 100.916 313.005 97.4761C317.164 102.26 324.701 107.506 336.777 108.386C345.862 109.048 343.136 119.046 337.146 119.561C334.342 119.803 330.065 124.762 325.402 129.271C320.188 134.312 315.253 136.632 309.109 136.834C298.025 137.2 292.171 125.648 291.172 119.384" stroke="#383838" stroke-width="2"/>
    <path d="M297.481 84.1841C297.141 90.4909 299.624 95.764 303.019 95.9502C306.033 96.1134 308.746 92.2374 309.566 86.978C309.635 86.5019 309.391 86.0291 308.951 85.803L304.37 83.4478C303.463 82.9877 303.551 81.6677 304.507 81.3163L308.418 79.8961C308.962 79.7029 309.289 79.1201 309.13 78.5574C308.197 75.3788 306.409 73.2121 304.257 73.1024C300.863 72.9163 297.835 77.8874 297.495 84.1942L297.481 84.1841Z" fill="#383838"/>
    <path d="M320.86 84.1905C320.52 90.4973 323.003 95.7704 326.398 95.9565C329.412 96.1197 332.125 92.2438 332.944 86.9843C333.014 86.5083 332.77 86.0354 332.33 85.8094L327.748 83.4542C326.842 82.9941 326.93 81.6741 327.886 81.3227L331.797 79.9025C332.341 79.7092 332.668 79.1264 332.509 78.5638C331.576 75.3852 329.788 73.2184 327.636 73.1088C324.241 72.9227 321.214 77.8938 320.874 84.2006L320.86 84.1905Z" fill="#383838"/>
  </g>
</svg>
